<svg width="64" height="64" viewBox="0 0 64 64" fill="none" xmlns="http://www.w3.org/2000/svg">
  <!-- Background circle with gradient -->
  <defs>
    <linearGradient id="bgGradient" x1="0%" y1="0%" x2="100%" y2="100%">
      <stop offset="0%" style="stop-color:#3B82F6;stop-opacity:1" />
      <stop offset="100%" style="stop-color:#8B5CF6;stop-opacity:1" />
    </linearGradient>
    <linearGradient id="nodeGradient" x1="0%" y1="0%" x2="100%" y2="100%">
      <stop offset="0%" style="stop-color:#FFFFFF;stop-opacity:0.9" />
      <stop offset="100%" style="stop-color:#F1F5F9;stop-opacity:0.8" />
    </linearGradient>
  </defs>
  
  <!-- Main background -->
  <rect width="64" height="64" rx="16" fill="url(#bgGradient)"/>
  
  <!-- Neural network pattern representing "Kortex" -->
  <!-- Central hub node -->
  <circle cx="32" cy="32" r="4" fill="url(#nodeGradient)"/>
  
  <!-- Surrounding nodes -->
  <circle cx="20" cy="20" r="2.5" fill="url(#nodeGradient)"/>
  <circle cx="44" cy="20" r="2.5" fill="url(#nodeGradient)"/>
  <circle cx="20" cy="44" r="2.5" fill="url(#nodeGradient)"/>
  <circle cx="44" cy="44" r="2.5" fill="url(#nodeGradient)"/>
  <circle cx="32" cy="16" r="2" fill="url(#nodeGradient)"/>
  <circle cx="48" cy="32" r="2" fill="url(#nodeGradient)"/>
  <circle cx="32" cy="48" r="2" fill="url(#nodeGradient)"/>
  <circle cx="16" cy="32" r="2" fill="url(#nodeGradient)"/>
  
  <!-- Connection lines -->
  <g stroke="rgba(255,255,255,0.6)" stroke-width="1.5" fill="none">
    <!-- From center to corners -->
    <line x1="32" y1="32" x2="20" y2="20"/>
    <line x1="32" y1="32" x2="44" y2="20"/>
    <line x1="32" y1="32" x2="20" y2="44"/>
    <line x1="32" y1="32" x2="44" y2="44"/>
    
    <!-- From center to edges -->
    <line x1="32" y1="32" x2="32" y2="16"/>
    <line x1="32" y1="32" x2="48" y2="32"/>
    <line x1="32" y1="32" x2="32" y2="48"/>
    <line x1="32" y1="32" x2="16" y2="32"/>
    
    <!-- Corner connections -->
    <line x1="20" y1="20" x2="32" y2="16"/>
    <line x1="44" y1="20" x2="32" y2="16"/>
    <line x1="44" y1="20" x2="48" y2="32"/>
    <line x1="44" y1="44" x2="48" y2="32"/>
    <line x1="44" y1="44" x2="32" y2="48"/>
    <line x1="20" y1="44" x2="32" y2="48"/>
    <line x1="20" y1="44" x2="16" y2="32"/>
    <line x1="20" y1="20" x2="16" y2="32"/>
  </g>
</svg>
